# xmcd CD database file
#
# Track frame offsets:
#	150
#	5535
#	20265
#	36852
#
# Disc length: 855 seconds
#
# Revision: 1
# Processed by: cddbd v1.5PL3 Copyright (c) Steve Scherf et al.
# Submitted via: CDex 1.51
#
DISCID=23035504
DTITLE=YOSHIKA - JOLIE
DYEAR=2003
DGENRE=R&B
TTITLE0=STRAIGHT AHEAD (INTRO)
TTITLE1=JOLIE (cm version)
TTITLE2=JOLIE (Medium F.B.O.P version)
TTITLE3=STRAIGHT AHEAD (Cyche Outs REMIX)
EXTD=YEAR: 20030226
EXTT0=
EXTT1=
EXTT2=
EXTT3=
PLAYORDER=
